<?xml version="1.0" standalone="no"?>
<!DOCTYPE svg PUBLIC "-//W3C//DTD SVG 20010904//EN"
 "http://www.w3.org/TR/2001/REC-SVG-20010904/DTD/svg10.dtd">
<svg version="1.0" xmlns="http://www.w3.org/2000/svg"
 width="900.000000pt" height="900.000000pt" viewBox="0 0 900.000000 900.000000"
 preserveAspectRatio="xMidYMid meet">
<metadata>
Created by potrace 1.10, written by Peter Selinger 2001-2011
</metadata>
<g transform="translate(0.000000,900.000000) scale(0.100000,-0.100000)"
fill="#7b7e84" stroke="none">
<path d="M4339 8886 c-4 -4 -42 -9 -85 -12 -114 -7 -305 -23 -334 -29 -14 -2
-43 -6 -65 -9 -118 -13 -145 -18 -150 -27 -4 -5 -30 -9 -59 -9 -28 0 -56 -4
-62 -9 -5 -5 -34 -14 -64 -19 -85 -17 -172 -39 -203 -51 -16 -6 -39 -11 -51
-11 -13 0 -29 -7 -36 -15 -7 -8 -27 -15 -45 -15 -18 0 -46 -7 -61 -15 -16 -8
-38 -15 -49 -15 -11 0 -29 -7 -39 -15 -11 -8 -28 -15 -37 -15 -10 0 -30 -6
-46 -14 -51 -26 -103 -46 -117 -46 -8 0 -19 -7 -26 -15 -7 -8 -19 -15 -28 -15
-8 0 -44 -13 -79 -30 -34 -16 -69 -30 -77 -30 -7 0 -19 -7 -26 -15 -7 -8 -20
-15 -30 -15 -10 0 -23 -7 -30 -15 -7 -8 -20 -15 -29 -15 -9 0 -21 -4 -27 -9
-5 -6 -40 -26 -79 -46 -38 -20 -89 -50 -113 -66 -23 -16 -49 -29 -56 -29 -8 0
-19 -7 -26 -15 -7 -8 -17 -15 -22 -15 -6 0 -27 -13 -48 -30 -21 -16 -41 -30
-45 -30 -4 0 -24 -13 -45 -30 -21 -16 -41 -30 -44 -30 -9 0 -280 -203 -331
-248 -240 -211 -346 -317 -557 -557 -45 -51 -248 -322 -248 -331 0 -3 -13 -23
-30 -44 -16 -21 -30 -41 -30 -45 0 -4 -13 -24 -30 -45 -16 -21 -30 -42 -30
-48 0 -5 -7 -15 -15 -22 -8 -7 -15 -18 -15 -26 0 -7 -13 -32 -29 -56 -16 -24
-39 -62 -51 -86 -12 -23 -26 -45 -31 -48 -5 -3 -9 -13 -9 -23 0 -10 -7 -24
-15 -31 -8 -7 -15 -20 -15 -30 0 -10 -7 -23 -15 -30 -8 -7 -15 -20 -15 -30 0
-10 -7 -23 -15 -30 -8 -7 -15 -19 -15 -26 0 -8 -14 -44 -31 -81 -16 -38 -36
-81 -43 -98 -7 -16 -21 -47 -30 -68 -9 -21 -16 -44 -16 -51 0 -8 -7 -19 -15
-26 -8 -7 -15 -25 -15 -39 0 -15 -7 -36 -15 -47 -8 -10 -15 -28 -15 -39 0 -11
-7 -33 -15 -49 -8 -15 -15 -43 -15 -61 0 -18 -7 -38 -15 -45 -8 -7 -15 -23
-15 -36 0 -12 -5 -35 -11 -51 -12 -31 -34 -118 -51 -203 -5 -30 -14 -59 -19
-64 -5 -6 -9 -30 -9 -55 0 -26 -7 -64 -14 -86 -8 -22 -17 -70 -20 -105 -4 -36
-8 -76 -11 -90 -3 -14 -9 -77 -15 -140 -5 -63 -13 -151 -17 -195 -9 -96 -9
-358 0 -475 21 -274 28 -343 35 -358 5 -9 9 -43 11 -75 1 -32 9 -79 16 -105 8
-26 15 -64 15 -84 0 -20 4 -39 9 -42 5 -4 12 -30 16 -59 7 -52 24 -121 51
-207 8 -25 14 -52 14 -61 0 -9 7 -30 15 -45 8 -16 15 -36 15 -44 0 -8 12 -46
26 -85 14 -38 29 -84 33 -100 4 -17 13 -39 18 -50 6 -11 19 -40 28 -65 17 -43
28 -71 60 -145 32 -74 48 -111 57 -125 4 -8 11 -22 14 -30 3 -8 10 -22 15 -30
5 -8 12 -22 15 -30 3 -8 9 -22 14 -30 5 -8 19 -35 31 -60 13 -25 42 -77 66
-116 24 -39 43 -74 43 -77 0 -3 20 -35 45 -71 25 -37 45 -69 45 -72 0 -3 14
-23 30 -44 17 -21 30 -41 30 -44 0 -7 178 -247 190 -256 3 -3 24 -28 46 -55
101 -130 455 -483 570 -572 16 -12 38 -30 49 -40 11 -11 70 -56 130 -101 61
-45 115 -86 122 -92 7 -5 15 -10 19 -10 3 0 23 -13 44 -30 21 -16 40 -30 43
-30 4 0 23 -12 44 -26 21 -14 47 -30 58 -35 11 -5 34 -18 50 -29 17 -11 50
-31 75 -45 25 -14 52 -29 60 -34 8 -5 22 -12 30 -15 8 -4 29 -15 45 -26 17
-11 37 -22 45 -26 8 -3 22 -10 30 -15 8 -5 22 -12 30 -15 19 -8 58 -25 140
-62 36 -16 101 -44 145 -61 44 -18 93 -39 108 -47 16 -8 37 -14 47 -14 10 0
31 -6 47 -14 39 -19 91 -36 136 -46 21 -4 44 -13 50 -19 6 -6 23 -11 39 -11
15 0 42 -6 60 -14 34 -14 141 -40 213 -52 22 -4 45 -10 50 -14 6 -4 33 -10 60
-13 28 -2 68 -9 90 -15 22 -6 67 -13 100 -17 33 -3 71 -8 85 -10 25 -5 156
-17 335 -32 114 -9 364 -9 475 0 210 18 307 27 335 31 17 2 67 9 113 14 45 6
87 14 93 18 6 3 36 10 67 15 82 11 237 47 322 75 25 8 54 14 65 14 12 0 25 4
30 9 6 6 28 14 50 20 52 12 103 30 138 47 16 8 37 14 47 14 10 0 31 6 47 14
15 8 48 22 73 31 79 30 291 123 330 145 8 5 58 31 110 57 52 27 115 63 140 79
65 41 82 52 105 63 11 5 37 21 58 35 21 14 40 26 44 26 3 0 22 13 43 30 21 16
43 30 49 30 6 0 11 5 11 10 0 6 8 14 18 17 18 7 202 143 237 176 11 10 33 28
49 40 58 45 134 116 291 272 175 175 223 227 275 295 18 25 39 50 45 55 6 6
48 60 93 120 45 61 86 115 92 122 5 7 10 15 10 19 0 3 12 23 28 43 15 20 32
45 39 56 7 11 37 61 67 110 75 124 91 153 121 210 25 48 34 66 55 103 6 9 13
24 16 32 3 8 10 22 15 30 5 8 12 22 15 30 3 8 12 30 20 48 13 30 22 51 58 135
8 17 24 57 35 87 12 30 26 64 30 75 14 34 32 88 43 125 5 19 14 39 19 45 5 5
9 20 9 35 0 14 7 38 15 54 8 15 15 36 15 45 0 9 6 36 14 61 26 81 63 236 76
320 5 30 13 71 19 90 5 19 12 63 15 97 2 35 7 67 10 72 6 8 22 188 30 321 16
250 17 372 6 440 -6 41 -11 86 -10 100 3 36 -11 200 -25 295 -3 17 -7 57 -10
90 -3 33 -12 83 -20 112 -8 28 -15 69 -15 90 0 21 -4 43 -9 49 -5 5 -14 34
-19 64 -17 85 -39 172 -51 203 -6 16 -11 39 -11 51 0 13 -7 29 -15 36 -8 7
-15 29 -15 49 0 20 -7 45 -15 55 -8 11 -15 32 -15 47 0 14 -7 32 -15 39 -8 7
-15 23 -15 35 0 13 -7 37 -15 54 -8 17 -22 45 -30 62 -8 17 -15 37 -15 44 0 7
-6 26 -14 42 -8 15 -21 44 -29 63 -33 74 -79 176 -88 190 -5 8 -12 22 -15 30
-3 8 -9 22 -14 30 -5 8 -25 46 -45 84 -20 38 -49 89 -66 113 -16 24 -29 50
-29 57 0 8 -7 19 -15 26 -8 7 -15 17 -15 22 0 6 -13 27 -30 48 -16 21 -30 41
-30 45 0 4 -13 24 -30 45 -16 21 -30 41 -30 44 0 11 -235 318 -284 371 -26 28
-66 72 -89 100 -55 65 -207 217 -280 280 -32 28 -84 74 -115 103 -56 53 -355
282 -368 282 -3 0 -23 14 -44 30 -21 17 -41 30 -45 30 -4 0 -24 14 -45 30 -21
17 -42 30 -48 30 -5 0 -15 7 -22 15 -7 8 -18 15 -26 15 -7 0 -33 13 -56 29
-24 16 -75 46 -113 66 -39 20 -74 40 -79 46 -6 5 -18 9 -27 9 -9 0 -22 7 -29
15 -7 8 -20 15 -30 15 -10 0 -23 7 -30 15 -7 8 -19 15 -26 15 -8 0 -44 14 -81
31 -38 16 -84 37 -103 45 -19 9 -48 22 -63 30 -16 8 -37 14 -47 14 -9 0 -23 7
-30 15 -7 8 -25 15 -39 15 -15 0 -36 7 -47 15 -10 8 -28 15 -39 15 -11 0 -33
7 -49 15 -15 8 -40 15 -55 15 -15 0 -35 6 -46 14 -11 7 -31 15 -45 18 -14 3
-68 17 -120 31 -52 14 -116 28 -143 32 -26 4 -50 11 -53 16 -3 5 -23 9 -46 9
-22 0 -63 7 -91 15 -29 8 -79 17 -112 20 -33 3 -73 8 -90 11 -128 22 -702 54
-716 40z m625 -202 c27 -8 78 -14 113 -14 35 0 80 -7 100 -15 19 -8 59 -15 87
-15 28 -1 62 -7 76 -15 14 -8 45 -15 70 -15 25 0 56 -7 70 -15 14 -8 41 -14
61 -15 20 0 42 -7 49 -15 7 -8 29 -15 49 -15 20 -1 47 -7 61 -15 14 -8 36 -15
50 -15 14 0 34 -7 44 -15 11 -8 32 -15 47 -15 14 0 32 -7 39 -15 7 -8 25 -15
40 -15 15 0 33 -7 40 -15 7 -8 25 -15 40 -15 15 0 33 -7 40 -15 7 -8 23 -15
35 -15 12 0 28 -7 35 -15 7 -8 22 -15 34 -15 11 0 30 -7 40 -15 11 -8 27 -15
37 -15 9 0 22 -7 29 -15 7 -8 20 -15 30 -15 10 0 23 -7 30 -15 7 -8 23 -15 36
-15 12 0 26 -5 29 -11 4 -5 17 -14 28 -20 12 -5 30 -13 40 -19 9 -5 25 -15 35
-20 9 -6 27 -14 39 -19 11 -6 24 -15 28 -20 3 -6 15 -11 26 -11 11 0 22 -7 25
-15 4 -8 14 -15 24 -15 10 0 23 -7 30 -15 7 -8 18 -15 25 -15 7 0 15 -7 19
-15 3 -8 14 -15 25 -15 11 0 24 -6 28 -12 9 -15 37 -33 71 -48 12 -5 22 -14
22 -20 0 -5 5 -10 11 -10 6 0 37 -20 69 -45 32 -25 62 -45 67 -45 5 0 23 -13
41 -29 17 -16 60 -51 94 -77 35 -26 70 -55 79 -63 9 -9 47 -43 85 -75 84 -72
278 -266 359 -360 33 -38 67 -77 76 -86 8 -9 42 -52 76 -96 33 -44 68 -85 77
-93 9 -7 16 -18 16 -23 0 -5 20 -36 45 -68 25 -32 45 -63 45 -69 0 -6 5 -11
10 -11 6 0 15 -10 20 -22 11 -25 15 -32 78 -126 23 -35 42 -70 42 -78 0 -8 4
-14 9 -14 5 0 21 -24 35 -54 14 -30 31 -58 36 -61 6 -3 10 -14 10 -24 0 -10 7
-24 15 -31 8 -7 15 -20 15 -30 0 -10 7 -23 15 -30 8 -7 15 -20 15 -30 0 -10 7
-23 15 -30 8 -7 15 -20 15 -30 0 -10 7 -23 15 -30 8 -7 15 -23 15 -35 0 -12 7
-28 15 -35 8 -7 15 -23 15 -35 0 -12 7 -28 15 -35 8 -7 15 -23 15 -35 0 -12 7
-28 15 -35 8 -7 15 -25 15 -40 0 -15 7 -33 15 -40 8 -7 15 -24 15 -39 0 -14 7
-35 15 -45 8 -11 15 -32 15 -47 0 -14 7 -32 15 -39 8 -7 15 -27 15 -44 0 -18
7 -41 15 -52 8 -10 15 -35 15 -54 0 -19 7 -44 15 -54 8 -11 15 -36 15 -55 1
-20 7 -47 15 -61 8 -14 14 -43 15 -65 0 -22 7 -53 15 -69 8 -15 15 -50 15 -76
0 -26 7 -64 15 -83 8 -20 15 -64 15 -98 0 -33 7 -89 16 -123 14 -51 16 -126
16 -466 0 -340 -2 -415 -16 -466 -9 -34 -16 -90 -16 -123 0 -34 -7 -78 -15
-98 -8 -19 -15 -59 -15 -87 -1 -28 -7 -62 -15 -76 -8 -14 -14 -46 -15 -71 0
-25 -7 -54 -15 -65 -8 -10 -15 -35 -15 -55 0 -19 -7 -44 -15 -55 -8 -10 -15
-35 -15 -55 0 -19 -7 -44 -15 -55 -8 -10 -15 -32 -15 -49 0 -16 -7 -39 -15
-49 -8 -11 -15 -32 -15 -47 0 -14 -7 -32 -15 -39 -8 -7 -15 -25 -15 -39 0 -15
-7 -36 -15 -47 -8 -10 -15 -28 -15 -40 0 -11 -7 -29 -15 -40 -8 -10 -15 -29
-15 -40 0 -12 -7 -27 -15 -34 -8 -7 -15 -23 -15 -35 0 -12 -7 -28 -15 -35 -8
-7 -15 -20 -15 -30 0 -10 -7 -23 -15 -30 -8 -7 -15 -23 -15 -35 0 -12 -7 -28
-15 -35 -8 -7 -15 -20 -15 -30 0 -10 -7 -23 -15 -30 -8 -7 -15 -21 -15 -31 0
-10 -5 -21 -11 -24 -5 -4 -14 -17 -20 -28 -5 -12 -13 -29 -18 -37 -5 -8 -12
-22 -15 -30 -4 -8 -15 -28 -26 -45 -11 -16 -24 -39 -30 -50 -6 -11 -19 -33
-30 -50 -11 -16 -24 -39 -30 -50 -6 -11 -18 -32 -28 -46 -83 -127 -106 -159
-113 -159 -5 0 -9 -5 -9 -10 0 -14 -72 -110 -82 -110 -4 0 -8 -5 -8 -11 0 -12
-49 -76 -95 -125 -16 -17 -56 -63 -87 -100 -88 -106 -416 -424 -438 -424 -4 0
-10 -4 -12 -9 -5 -15 -122 -111 -135 -111 -7 0 -13 -4 -13 -8 0 -7 -95 -82
-104 -82 -3 0 -20 -13 -38 -30 -18 -16 -36 -30 -40 -30 -4 0 -35 -19 -70 -43
-35 -24 -70 -46 -78 -50 -8 -4 -28 -16 -45 -27 -16 -11 -39 -24 -50 -30 -11
-6 -33 -19 -50 -30 -16 -11 -36 -22 -43 -25 -6 -3 -18 -7 -25 -10 -6 -3 -25
-14 -42 -25 -28 -18 -35 -22 -67 -35 -7 -3 -20 -9 -28 -14 -46 -26 -80 -41
-94 -41 -9 0 -19 -7 -22 -15 -4 -8 -14 -15 -24 -15 -10 0 -31 -6 -47 -14 -15
-7 -46 -21 -68 -31 -22 -9 -52 -24 -67 -31 -14 -8 -34 -14 -45 -14 -10 0 -27
-7 -37 -15 -11 -8 -32 -15 -47 -15 -14 0 -32 -7 -39 -15 -7 -8 -25 -15 -39
-15 -15 0 -36 -7 -47 -15 -10 -8 -32 -15 -49 -15 -16 0 -39 -7 -49 -15 -11 -8
-36 -15 -55 -15 -20 0 -45 -7 -55 -15 -11 -8 -34 -15 -50 -15 -17 -1 -42 -7
-56 -15 -14 -8 -45 -15 -70 -15 -25 0 -56 -7 -70 -15 -14 -8 -48 -14 -76 -15
-28 0 -68 -7 -87 -15 -20 -8 -64 -15 -98 -15 -33 0 -89 -7 -123 -16 -90 -24
-841 -24 -932 0 -34 9 -90 16 -123 16 -34 0 -78 7 -98 15 -19 8 -59 15 -87 15
-28 1 -62 7 -76 15 -14 8 -46 14 -71 15 -25 0 -54 7 -65 15 -10 8 -35 15 -55
15 -19 0 -44 7 -55 15 -10 8 -35 15 -55 15 -19 0 -44 7 -55 15 -10 8 -32 15
-49 15 -16 0 -39 7 -49 15 -11 8 -32 15 -47 15 -14 0 -32 7 -39 15 -7 8 -24
15 -39 15 -14 0 -35 7 -45 15 -11 8 -29 15 -40 15 -12 0 -30 7 -40 15 -11 8
-30 15 -42 15 -12 0 -27 7 -34 15 -7 8 -20 15 -29 15 -10 0 -26 7 -37 15 -10
8 -26 15 -35 15 -9 0 -22 7 -29 15 -7 8 -23 15 -35 15 -12 0 -28 7 -35 15 -7
8 -20 15 -30 15 -10 0 -23 7 -30 15 -7 8 -21 15 -31 15 -10 0 -21 5 -24 11 -4
5 -17 14 -28 20 -12 5 -29 13 -37 18 -8 5 -22 12 -30 15 -8 4 -28 15 -45 26
-16 11 -39 24 -50 30 -11 6 -33 19 -50 30 -16 11 -40 24 -52 30 -13 5 -23 14
-23 19 0 5 -11 12 -25 15 -14 4 -25 11 -25 16 0 6 -4 10 -9 10 -14 0 -121 72
-121 81 0 5 -5 9 -10 9 -14 0 -110 72 -110 82 0 4 -5 8 -11 8 -15 0 -38 18
-254 208 -89 77 -282 274 -362 367 -130 152 -153 181 -153 193 0 6 -4 12 -8
12 -10 0 -82 96 -82 110 0 5 -4 10 -9 10 -7 0 -30 32 -113 159 -10 14 -22 35
-28 46 -6 11 -19 34 -30 50 -11 17 -24 39 -30 50 -6 11 -19 34 -30 50 -11 17
-22 36 -25 43 -3 6 -7 18 -10 25 -3 6 -14 26 -25 42 -18 28 -22 35 -35 68 -3
6 -9 19 -14 27 -26 45 -41 80 -41 93 0 8 -7 20 -15 27 -8 7 -15 20 -15 30 0
10 -7 23 -15 30 -8 7 -15 25 -15 40 0 15 -7 33 -15 40 -8 7 -15 20 -15 29 0 9
-7 25 -15 35 -8 11 -15 29 -15 41 0 12 -7 30 -15 41 -8 10 -15 31 -15 45 0 15
-7 32 -15 39 -8 7 -15 25 -15 39 0 15 -7 36 -15 47 -8 10 -15 30 -15 44 0 14
-7 36 -15 50 -8 14 -14 41 -15 61 0 20 -7 42 -15 49 -8 7 -15 29 -15 49 -1 20
-7 47 -15 61 -8 14 -15 45 -15 70 0 25 -7 56 -15 70 -8 14 -14 48 -15 76 0 28
-7 68 -15 87 -8 20 -15 65 -15 99 0 35 -7 88 -15 118 -23 81 -23 859 0 940 8
30 15 83 15 118 0 34 7 79 15 99 8 19 15 59 15 87 1 28 7 62 15 76 8 14 15 45
15 70 0 25 7 56 15 70 8 14 14 41 15 61 0 20 7 42 15 49 8 7 15 29 15 49 1 20
7 47 15 61 8 14 15 36 15 50 0 14 7 34 15 44 8 11 15 32 15 47 0 14 7 32 15
39 8 7 15 24 15 39 0 14 7 35 15 45 8 11 15 28 15 39 0 10 6 31 14 45 7 15 20
43 28 62 28 64 45 105 61 140 9 19 18 42 21 50 3 8 10 22 15 30 5 8 12 22 15
30 3 8 10 22 15 30 5 8 12 22 15 30 4 8 15 29 26 45 11 17 22 35 24 40 2 6 7
17 10 25 3 8 15 29 26 45 11 17 24 39 30 50 6 11 19 34 30 50 11 17 24 39 30
50 15 29 32 56 63 96 15 20 27 41 27 46 0 5 14 23 30 41 17 18 30 35 30 38 0
9 75 104 82 104 4 0 8 5 8 11 0 13 53 82 92 121 16 15 28 29 28 32 0 10 92
109 240 256 164 165 246 240 260 240 4 0 10 4 12 9 5 15 122 111 136 111 6 0
12 4 12 8 0 7 95 82 104 82 3 0 20 14 38 30 18 17 36 30 41 30 5 0 26 13 46
28 20 16 43 32 51 35 8 4 29 16 45 27 17 11 39 24 50 30 11 6 34 19 50 30 17
11 39 24 50 30 11 5 27 14 35 19 8 5 22 12 30 15 8 4 29 15 45 26 17 11 37 22
45 26 8 3 22 10 30 15 8 5 20 11 25 13 6 2 17 7 25 10 8 3 22 10 30 14 14 9
51 25 125 57 93 40 112 48 137 61 14 8 35 14 45 14 11 0 28 7 39 15 10 8 31
15 45 15 15 0 32 7 39 15 7 8 25 15 39 15 15 0 36 7 47 15 10 8 30 15 44 15
14 0 36 7 50 15 14 8 41 14 61 15 20 0 42 7 49 15 7 8 29 15 49 15 20 1 47 7
61 15 14 8 45 15 70 15 25 0 56 7 70 15 14 8 50 15 80 15 30 0 66 7 80 15 15
9 53 14 95 15 39 0 86 5 105 12 81 27 871 29 964 2z"/>
<path d="M4280 8399 c-30 -5 -113 -13 -185 -17 -71 -5 -143 -14 -158 -20 -16
-7 -56 -12 -90 -12 -39 -1 -69 -6 -81 -15 -11 -9 -42 -15 -70 -15 -28 -1 -62
-7 -76 -15 -14 -8 -43 -14 -66 -15 -22 0 -49 -7 -60 -15 -10 -8 -35 -15 -55
-15 -19 0 -44 -7 -55 -15 -10 -8 -32 -15 -49 -15 -16 0 -39 -7 -49 -15 -11 -8
-32 -15 -46 -15 -14 0 -35 -7 -46 -15 -10 -8 -31 -15 -45 -15 -15 0 -32 -7
-39 -15 -7 -8 -22 -15 -34 -15 -11 0 -30 -7 -40 -15 -11 -8 -30 -15 -42 -15
-12 0 -27 -7 -34 -15 -7 -8 -23 -15 -37 -15 -13 0 -26 -7 -29 -15 -4 -8 -16
-15 -29 -15 -12 0 -28 -7 -35 -15 -7 -8 -20 -15 -30 -15 -10 0 -23 -7 -30 -15
-7 -8 -20 -15 -30 -15 -10 0 -23 -7 -30 -15 -7 -8 -21 -15 -31 -15 -10 0 -21
-5 -24 -11 -4 -5 -17 -15 -28 -20 -12 -5 -35 -18 -52 -29 -16 -11 -39 -24 -50
-30 -11 -6 -33 -19 -50 -30 -16 -11 -40 -24 -52 -30 -13 -5 -23 -14 -23 -20 0
-5 -5 -10 -11 -10 -6 0 -28 -13 -49 -30 -21 -16 -43 -30 -49 -30 -6 0 -11 -4
-11 -8 0 -5 -29 -29 -64 -55 -153 -112 -390 -349 -504 -504 -25 -35 -49 -63
-54 -63 -4 0 -8 -5 -8 -11 0 -6 -13 -28 -30 -49 -16 -21 -30 -42 -30 -48 0 -6
-3 -12 -7 -14 -9 -3 -46 -55 -56 -78 -4 -8 -16 -28 -27 -45 -11 -16 -24 -40
-29 -52 -5 -11 -15 -24 -20 -28 -6 -3 -11 -14 -11 -24 0 -10 -7 -24 -15 -31
-8 -7 -15 -20 -15 -30 0 -10 -7 -23 -15 -30 -8 -7 -15 -20 -15 -30 0 -10 -7
-23 -15 -30 -8 -7 -15 -23 -15 -35 0 -12 -7 -28 -15 -35 -8 -7 -15 -20 -15
-29 0 -10 -7 -26 -15 -37 -8 -10 -15 -29 -15 -40 0 -12 -7 -27 -15 -34 -8 -7
-15 -25 -15 -39 0 -15 -7 -36 -15 -47 -8 -10 -15 -33 -15 -50 0 -17 -7 -37
-15 -44 -8 -7 -15 -27 -15 -44 0 -18 -7 -41 -15 -52 -8 -10 -15 -35 -15 -55 0
-19 -7 -44 -15 -55 -8 -10 -15 -35 -15 -54 0 -19 -7 -46 -15 -60 -8 -14 -15
-45 -15 -70 0 -25 -7 -56 -15 -70 -8 -14 -14 -53 -15 -90 0 -36 -7 -87 -15
-114 -21 -68 -20 -393 0 -451 8 -22 15 -61 15 -86 0 -29 6 -51 15 -59 8 -7 15
-27 15 -45 0 -18 7 -38 15 -45 8 -7 15 -23 15 -35 0 -12 7 -28 15 -35 8 -7 15
-20 15 -30 0 -10 7 -23 15 -30 8 -7 15 -19 15 -26 0 -8 5 -14 10 -14 6 0 14
-8 17 -17 4 -10 46 -71 95 -135 48 -64 88 -124 88 -131 0 -8 6 -20 14 -26 11
-9 27 -94 28 -151 0 -42 -16 -121 -28 -131 -8 -6 -14 -18 -14 -26 0 -23 -110
-123 -135 -123 -12 0 -28 -7 -35 -15 -17 -21 -177 -21 -204 0 -11 8 -30 15
-42 15 -12 0 -27 7 -34 15 -7 8 -17 15 -22 15 -13 0 -137 121 -149 145 -5 11
-18 34 -29 50 -11 17 -22 37 -25 45 -3 8 -13 28 -21 43 -7 16 -14 39 -14 52 0
12 -7 28 -15 35 -8 7 -15 29 -15 49 -1 20 -7 47 -15 61 -8 14 -14 49 -15 79 0
29 -5 94 -12 142 -9 69 -9 124 0 242 25 305 25 310 13 303 -6 -4 -11 -26 -11
-49 0 -23 -7 -73 -15 -112 -8 -38 -15 -97 -15 -130 0 -33 -7 -114 -15 -180
-17 -137 -19 -387 -4 -490 6 -38 14 -126 18 -195 5 -69 13 -138 20 -153 6 -16
11 -56 11 -90 1 -35 7 -73 15 -87 8 -14 15 -45 15 -70 0 -25 7 -56 15 -70 8
-14 15 -41 15 -60 0 -19 7 -46 15 -60 8 -14 15 -41 15 -60 0 -19 7 -44 15 -54
8 -11 15 -32 15 -46 0 -14 7 -35 15 -46 8 -10 15 -33 15 -50 0 -17 7 -37 15
-44 8 -7 15 -23 15 -35 0 -13 7 -37 15 -54 8 -17 22 -45 30 -62 8 -17 15 -39
15 -49 0 -9 7 -23 15 -30 8 -7 15 -23 15 -35 0 -12 7 -28 15 -35 8 -7 15 -20
15 -30 0 -10 7 -23 15 -30 8 -7 15 -20 15 -30 0 -10 7 -23 15 -30 8 -7 15 -20
15 -30 0 -10 7 -23 15 -30 8 -7 15 -21 15 -31 0 -10 5 -21 11 -24 5 -4 15 -17
20 -28 5 -12 18 -35 29 -52 11 -16 24 -39 30 -50 15 -29 32 -56 62 -96 16 -20
28 -40 28 -44 0 -7 118 -165 135 -180 6 -5 27 -30 45 -55 76 -101 207 -231
385 -382 57 -49 203 -158 210 -158 4 0 24 -13 44 -28 20 -16 43 -32 51 -35 8
-4 29 -16 45 -27 17 -11 40 -24 52 -29 11 -5 24 -15 28 -20 3 -6 14 -11 24
-11 10 0 24 -7 31 -15 7 -8 20 -15 30 -15 10 0 23 -7 30 -15 7 -8 20 -15 30
-15 10 0 20 -7 24 -15 3 -8 16 -15 29 -15 14 0 30 -7 37 -15 7 -8 23 -15 35
-15 12 0 28 -7 35 -15 7 -8 23 -15 35 -15 12 0 28 -7 35 -15 7 -8 25 -15 39
-15 15 0 36 -7 47 -15 10 -8 30 -15 44 -15 14 0 34 -7 44 -15 11 -8 32 -15 46
-15 14 0 35 -7 46 -15 10 -8 35 -15 54 -15 19 0 44 -7 54 -15 11 -8 34 -15 50
-15 17 -1 42 -7 56 -15 14 -8 43 -15 65 -15 22 0 51 -7 65 -15 14 -8 48 -14
76 -15 28 0 71 -7 94 -15 62 -22 554 -22 607 0 19 8 50 15 68 15 18 0 38 7 45
15 7 8 25 15 40 15 15 0 33 7 40 15 7 8 21 15 31 15 10 0 21 5 24 11 4 5 17
14 28 20 37 15 168 108 192 134 14 16 87 70 105 79 26 12 57 31 74 46 12 9 50
13 136 14 98 0 122 -3 138 -17 10 -9 25 -17 33 -17 28 0 129 -120 129 -153 0
-8 7 -20 15 -27 20 -17 21 -167 1 -207 -8 -15 -18 -35 -21 -43 -18 -46 -114
-160 -135 -160 -5 0 -10 -5 -10 -10 0 -6 -10 -15 -22 -20 -13 -6 -36 -19 -53
-30 -16 -11 -37 -22 -45 -26 -8 -3 -27 -12 -42 -20 -14 -8 -37 -14 -51 -14
-13 0 -30 -7 -37 -15 -7 -8 -29 -15 -49 -15 -20 -1 -47 -7 -61 -15 -14 -8 -49
-14 -79 -15 -29 0 -93 -5 -142 -12 -98 -13 -370 1 -534 27 -49 8 -112 17 -140
21 -27 3 -57 9 -65 14 -8 4 -40 10 -70 14 -69 9 -56 -7 20 -23 30 -6 87 -18
125 -27 39 -8 106 -19 150 -24 44 -6 87 -13 95 -16 8 -4 71 -10 140 -15 69 -4
166 -13 215 -18 114 -13 377 -13 475 0 41 6 131 13 200 17 69 5 135 13 147 20
12 7 52 12 90 12 44 1 75 6 87 15 11 9 42 15 70 15 28 1 62 7 76 15 14 8 41
15 60 15 19 0 46 7 60 15 14 8 41 15 60 15 19 0 44 7 54 15 11 8 32 15 46 15
14 0 35 7 46 15 10 8 31 15 45 15 14 0 34 7 45 15 10 8 31 15 45 15 15 0 32 7
39 15 7 8 22 15 34 15 11 0 30 7 40 15 11 8 30 15 42 15 12 0 27 7 34 15 7 8
23 15 35 15 12 0 28 7 35 15 7 8 20 15 30 15 10 0 23 7 30 15 7 8 20 15 30 15
10 0 23 7 30 15 7 8 20 15 30 15 10 0 23 7 30 15 7 8 21 15 31 15 10 0 21 5
24 11 4 5 17 15 28 20 12 5 36 18 52 29 17 11 39 24 50 30 29 15 56 32 96 62
20 16 42 28 48 28 7 0 14 7 17 15 4 8 10 15 15 15 13 0 109 72 109 82 0 4 6 8
14 8 8 0 16 3 18 8 2 4 32 32 68 62 161 136 220 195 395 405 22 26 43 56 47
66 4 11 12 19 18 19 5 0 10 7 10 15 0 9 7 18 15 21 8 4 15 11 15 16 0 6 12 27
28 47 30 40 47 67 62 96 6 11 19 34 30 50 11 17 24 40 29 52 5 11 15 24 20 28
6 3 11 14 11 24 0 10 7 24 15 31 8 7 15 20 15 30 0 10 7 23 15 30 8 7 15 20
15 30 0 10 7 23 15 30 8 7 15 23 15 35 0 12 7 28 15 35 8 7 15 23 15 35 0 12
7 28 15 35 8 7 15 25 15 40 0 15 7 33 15 40 8 7 15 25 15 39 0 15 7 36 15 47
8 10 15 33 15 50 0 17 7 37 15 44 8 7 15 27 15 44 0 17 7 40 15 50 8 11 15 36
15 55 0 20 7 45 15 55 8 11 15 36 15 55 1 20 7 47 15 61 8 14 14 42 15 63 0
21 7 54 15 74 8 19 15 62 15 94 0 32 7 84 15 116 21 79 21 361 0 429 -8 27
-15 69 -15 94 0 25 -7 54 -15 64 -8 11 -15 32 -15 47 0 14 -7 32 -15 39 -8 7
-15 23 -15 35 0 12 -7 28 -15 35 -8 7 -15 20 -15 30 0 10 -7 23 -15 30 -8 7
-15 19 -15 27 0 7 -7 16 -15 19 -8 4 -15 11 -15 16 0 12 -90 130 -107 141 -7
4 -13 13 -13 19 0 5 -13 27 -30 48 -16 21 -30 44 -30 51 0 7 -8 21 -17 31 -25
27 -25 259 0 286 9 10 17 25 17 32 0 19 109 120 129 120 9 0 25 7 35 15 28 21
189 21 206 0 7 -8 23 -15 35 -15 12 0 28 -7 35 -15 7 -8 18 -15 26 -15 17 0
141 -123 154 -152 6 -13 19 -36 30 -53 11 -16 22 -37 25 -45 3 -8 13 -28 21
-43 7 -16 14 -38 14 -50 0 -12 7 -31 15 -41 8 -11 15 -36 15 -55 1 -20 7 -47
15 -61 8 -14 14 -52 15 -87 0 -34 5 -97 11 -140 12 -87 -1 -347 -26 -508 -24
-151 -28 -190 -19 -182 11 10 31 112 44 220 5 43 12 83 16 88 3 6 10 67 15
137 5 70 13 168 19 217 12 115 12 330 -1 420 -5 39 -14 129 -18 200 -5 72 -14
143 -20 158 -6 16 -11 56 -11 90 -1 35 -7 73 -15 87 -8 14 -14 44 -15 68 0 23
-7 59 -15 79 -8 19 -15 50 -15 67 -1 17 -7 42 -15 56 -8 14 -15 41 -15 60 0
19 -7 44 -15 54 -8 11 -15 34 -15 50 0 17 -7 40 -15 50 -8 11 -15 32 -15 47 0
14 -7 32 -15 39 -8 7 -15 27 -15 45 0 18 -7 38 -15 45 -8 7 -15 22 -15 34 0
11 -7 30 -15 40 -8 11 -15 30 -15 42 0 12 -7 27 -15 34 -8 7 -15 18 -15 25 0
12 -18 52 -42 95 -4 8 -11 22 -14 30 -3 8 -10 22 -15 30 -5 8 -12 22 -15 30
-3 8 -9 22 -14 30 -5 8 -21 38 -35 67 -14 28 -30 55 -35 58 -6 3 -10 15 -10
26 0 10 -5 19 -10 19 -6 0 -15 10 -20 23 -6 12 -19 36 -30 52 -11 17 -23 37
-27 45 -3 8 -26 41 -50 72 -24 31 -43 61 -43 67 0 6 -4 11 -8 11 -5 0 -30 29
-56 65 -26 36 -53 71 -60 78 -7 7 -44 49 -84 93 -59 68 -153 158 -324 310 -14
13 -30 24 -35 24 -5 0 -23 14 -41 30 -18 17 -37 30 -42 30 -4 0 -10 7 -14 15
-3 8 -10 15 -17 15 -6 0 -28 12 -48 28 -40 30 -67 47 -96 62 -11 6 -33 19 -50
30 -16 11 -40 24 -52 29 -11 5 -24 15 -28 20 -3 6 -14 11 -24 11 -10 0 -24 7
-31 15 -7 8 -20 15 -30 15 -10 0 -23 7 -30 15 -7 8 -20 15 -30 15 -10 0 -23 7
-30 15 -7 8 -23 15 -35 15 -12 0 -28 7 -35 15 -7 8 -20 15 -29 15 -10 0 -26 7
-37 15 -10 8 -29 15 -40 15 -12 0 -27 7 -34 15 -7 8 -25 15 -39 15 -15 0 -36
7 -47 15 -10 8 -33 15 -50 15 -17 0 -37 7 -44 15 -7 8 -27 15 -44 15 -18 0
-41 7 -52 15 -10 8 -35 15 -55 15 -19 0 -44 7 -55 15 -10 8 -37 15 -59 15 -22
0 -49 7 -59 15 -11 8 -40 15 -65 15 -25 1 -57 7 -71 15 -14 8 -53 14 -90 15
-36 0 -87 7 -114 15 -35 11 -97 15 -221 15 -124 0 -186 -4 -221 -15 -27 -8
-67 -15 -90 -15 -22 0 -49 -7 -60 -15 -10 -8 -33 -15 -50 -15 -17 0 -37 -7
-44 -15 -7 -8 -20 -15 -29 -15 -9 -1 -34 -12 -56 -25 -22 -14 -47 -28 -55 -32
-8 -4 -68 -46 -132 -95 -64 -48 -121 -88 -127 -88 -5 0 -11 -7 -15 -15 -3 -8
-14 -15 -24 -15 -11 0 -25 -6 -31 -14 -9 -11 -96 -27 -151 -28 -47 0 -131 17
-141 28 -6 8 -17 14 -24 14 -23 0 -115 99 -122 130 -3 16 -12 35 -19 41 -21
17 -20 182 1 199 8 7 15 23 15 35 0 12 7 28 15 35 8 7 15 18 15 26 0 15 135
154 150 154 5 0 15 6 22 13 7 6 31 21 53 31 22 10 52 25 67 33 14 7 34 13 45
13 10 0 27 7 37 15 11 8 36 15 55 15 20 1 47 7 61 15 14 8 48 14 76 15 28 0
89 5 135 11 80 11 210 6 483 -18 50 -4 67 -3 62 6 -4 6 -26 11 -49 11 -23 1
-62 5 -87 11 -25 5 -99 14 -165 19 -66 5 -151 14 -190 19 -83 12 -367 12 -445
0z m-374 -1514 c27 -8 61 -15 75 -15 15 0 32 -7 39 -15 7 -8 21 -15 31 -15 47
0 179 -168 179 -227 0 -11 7 -37 15 -56 19 -45 19 -129 0 -182 -8 -22 -15 -62
-15 -90 0 -28 -7 -59 -15 -69 -8 -11 -15 -32 -15 -46 0 -14 -7 -35 -15 -46 -8
-10 -15 -29 -15 -40 0 -12 -7 -27 -15 -34 -8 -7 -15 -23 -15 -35 0 -12 -7 -28
-15 -35 -8 -7 -15 -21 -15 -31 0 -10 -5 -21 -11 -24 -5 -4 -15 -17 -20 -28 -5
-12 -18 -35 -29 -52 -11 -16 -23 -37 -27 -45 -20 -44 -169 -228 -257 -318 -88
-90 -261 -234 -306 -255 -8 -4 -28 -16 -45 -27 -16 -11 -39 -24 -50 -30 -11
-5 -27 -14 -35 -18 -49 -28 -84 -42 -101 -42 -23 0 -25 -13 -4 -30 8 -7 15
-21 15 -30 0 -10 21 -37 48 -59 46 -40 49 -41 123 -41 51 0 81 5 95 15 10 8
29 15 40 15 12 0 27 7 34 15 7 8 20 15 30 15 10 0 23 7 30 15 7 8 17 15 22 15
15 0 120 84 187 150 54 52 61 65 61 98 0 21 7 47 15 58 8 10 15 30 15 42 0 13
6 36 13 50 14 27 39 83 51 112 3 8 15 29 26 45 11 17 24 40 30 53 5 12 14 22
20 22 5 0 10 4 10 10 0 16 121 140 137 140 7 0 16 7 19 15 4 8 16 15 28 15 11
0 30 7 40 15 12 9 42 15 74 15 48 0 60 -4 98 -36 24 -19 44 -41 44 -48 0 -8 7
-19 15 -26 20 -17 21 -129 0 -156 -8 -10 -15 -31 -15 -45 0 -15 -7 -32 -15
-39 -8 -7 -15 -20 -15 -30 0 -10 -7 -23 -15 -30 -8 -7 -15 -17 -15 -22 0 -6
-13 -27 -30 -48 -16 -21 -30 -42 -30 -47 0 -5 -13 -22 -28 -39 -15 -16 -43
-49 -62 -74 -19 -25 -54 -65 -77 -90 -38 -40 -43 -50 -43 -91 0 -26 -7 -66
-15 -89 -16 -45 -21 -180 -6 -180 4 0 19 8 32 18 31 22 59 39 84 52 11 6 34
19 50 30 17 11 39 24 50 30 11 6 34 19 50 30 17 11 38 23 48 26 9 4 17 10 17
15 0 5 10 14 23 19 12 6 36 19 52 30 17 11 37 23 45 27 8 3 31 19 51 35 20 15
44 28 53 28 9 0 16 4 16 9 0 8 88 69 115 80 6 2 36 24 67 48 31 23 59 43 63
43 13 0 115 83 115 94 0 6 -7 20 -15 30 -21 28 -21 379 0 416 8 14 15 50 15
80 0 30 7 66 15 80 8 14 15 39 15 55 0 17 7 39 15 49 8 11 15 32 15 47 0 14 7
32 15 39 8 7 15 23 15 35 0 12 7 28 15 35 8 7 15 19 15 26 0 14 26 66 61 119
10 17 22 37 26 45 35 77 243 292 313 323 8 4 33 18 55 32 22 13 50 24 61 25
12 0 27 7 34 15 7 8 27 15 44 15 17 0 49 7 71 15 52 19 112 19 165 0 23 -8 55
-15 70 -15 15 0 33 -7 40 -15 7 -8 19 -15 27 -15 29 0 163 -120 163 -146 0 -6
7 -17 15 -24 8 -7 15 -22 15 -34 0 -11 7 -30 15 -40 21 -28 21 -280 0 -316 -8
-14 -14 -37 -15 -51 0 -14 -7 -34 -15 -45 -8 -10 -15 -29 -15 -40 0 -12 -7
-27 -15 -34 -8 -7 -15 -21 -15 -31 0 -10 -5 -21 -11 -24 -5 -4 -15 -17 -20
-28 -23 -52 -128 -197 -141 -197 -4 0 -8 -6 -8 -12 0 -14 -247 -260 -347 -346
-88 -76 -110 -92 -122 -92 -6 0 -11 -4 -11 -8 0 -5 -20 -23 -45 -41 -47 -34
-61 -75 -30 -87 8 -4 15 -14 15 -24 0 -9 23 -40 51 -69 46 -45 57 -51 93 -51
23 0 52 7 64 16 35 24 379 24 413 0 13 -9 33 -16 45 -16 12 0 27 -7 34 -15 7
-8 18 -15 25 -15 23 0 79 -68 91 -111 10 -33 10 -52 1 -87 -13 -50 -77 -122
-109 -122 -10 0 -29 -6 -41 -14 -46 -28 -229 -37 -472 -21 -105 7 -122 5 -134
-9 -7 -9 -24 -16 -36 -16 -12 0 -28 -7 -35 -15 -7 -8 -20 -15 -30 -15 -10 0
-23 -7 -30 -15 -7 -8 -21 -15 -31 -15 -11 0 -19 -5 -19 -10 0 -6 -8 -13 -17
-17 -10 -3 -36 -20 -58 -36 -52 -39 -225 -215 -225 -229 0 -5 -14 -27 -30 -48
-16 -21 -30 -45 -30 -53 0 -8 -7 -20 -15 -27 -8 -7 -15 -20 -15 -30 0 -10 -7
-23 -15 -30 -8 -7 -15 -23 -15 -35 0 -12 -7 -28 -15 -35 -8 -7 -15 -27 -15
-44 0 -18 -7 -41 -15 -52 -8 -10 -15 -38 -15 -60 0 -23 -7 -58 -15 -77 -22
-52 -22 -439 0 -490 8 -20 15 -51 15 -70 0 -18 7 -42 15 -53 8 -10 15 -33 15
-50 0 -17 7 -37 15 -44 8 -7 15 -20 15 -30 0 -10 7 -23 15 -30 8 -7 15 -20 15
-30 0 -10 7 -23 15 -30 8 -7 15 -21 15 -31 0 -11 5 -19 10 -19 6 0 13 -8 17
-17 15 -42 183 -223 206 -223 4 0 23 -11 40 -23 44 -33 114 -67 136 -67 10 0
24 -6 30 -14 32 -38 415 -36 453 2 7 7 22 12 34 12 12 0 27 7 34 15 7 8 20 15
30 15 10 0 23 7 30 15 7 8 18 15 24 15 6 0 19 8 27 18 9 9 37 34 62 55 46 37
137 147 137 165 0 5 7 15 15 22 8 7 15 20 15 30 0 10 7 23 15 30 8 7 15 24 15
39 0 14 7 35 15 45 8 11 15 36 15 55 0 20 7 58 15 85 19 62 19 159 0 211 -8
22 -15 59 -15 81 0 25 -6 47 -15 54 -8 7 -15 25 -15 41 0 15 -5 31 -11 34 -5
4 -14 17 -20 28 -26 61 -100 137 -161 165 -63 29 -167 46 -201 33 -16 -6 -41
-11 -56 -11 -16 0 -34 -7 -41 -15 -7 -8 -18 -15 -24 -15 -18 0 -96 -74 -96
-92 0 -8 -7 -21 -15 -28 -23 -19 -21 -165 4 -213 23 -46 99 -149 118 -160 7
-4 13 -13 13 -19 0 -6 7 -19 16 -29 11 -12 15 -38 15 -92 0 -68 -3 -79 -27
-106 -43 -49 -96 -71 -167 -71 -40 0 -70 5 -83 15 -10 8 -29 15 -40 15 -12 0
-27 7 -34 15 -7 8 -18 15 -26 15 -20 0 -154 138 -154 159 0 10 -7 21 -15 25
-8 3 -15 14 -15 24 0 10 -7 27 -15 38 -8 10 -15 30 -15 44 0 14 -7 36 -15 50
-21 36 -21 298 0 326 8 10 15 33 15 50 0 17 7 37 15 44 8 7 15 20 15 30 0 10
7 23 15 30 8 7 15 17 15 22 0 16 59 89 116 143 82 78 99 90 151 114 11 5 24
15 28 20 3 6 17 11 29 11 13 0 29 7 36 15 7 8 24 15 39 15 14 1 37 7 51 15 37
21 388 21 416 0 10 -8 30 -15 42 -15 13 0 36 -6 50 -13 15 -8 45 -22 67 -33
53 -24 102 -61 195 -146 32 -29 120 -144 120 -156 0 -5 7 -15 15 -22 8 -7 15
-20 15 -30 0 -10 7 -23 15 -30 8 -7 15 -21 15 -30 0 -10 6 -31 14 -47 23 -47
38 -95 46 -148 4 -27 12 -63 18 -78 18 -43 15 -365 -3 -397 -8 -14 -15 -43
-15 -65 0 -22 -7 -49 -15 -59 -8 -11 -15 -28 -15 -39 0 -10 -6 -31 -14 -45 -8
-15 -17 -34 -20 -42 -5 -14 -10 -22 -36 -67 -6 -10 -15 -30 -21 -45 -6 -16
-15 -28 -20 -28 -5 0 -9 -5 -9 -11 0 -26 -230 -289 -253 -289 -3 0 -21 -13
-39 -30 -18 -16 -36 -30 -40 -30 -5 0 -27 -13 -50 -30 -22 -16 -47 -30 -53
-30 -7 0 -18 -7 -25 -15 -7 -8 -20 -15 -30 -15 -10 0 -23 -7 -30 -15 -7 -8
-22 -15 -34 -15 -12 0 -31 -7 -42 -15 -10 -8 -33 -15 -50 -15 -16 0 -39 -7
-50 -15 -10 -8 -36 -15 -56 -15 -20 0 -63 -7 -95 -15 -75 -20 -260 -20 -333 0
-30 8 -73 15 -96 15 -22 0 -49 7 -60 15 -10 8 -35 15 -54 15 -19 0 -44 7 -54
15 -11 8 -30 15 -42 15 -12 0 -27 7 -34 15 -7 8 -20 15 -30 15 -10 0 -23 7
-30 15 -7 8 -20 15 -29 15 -9 0 -22 5 -28 11 -6 6 -20 16 -32 23 -118 66 -361
298 -361 345 0 6 -5 11 -10 11 -6 0 -15 10 -21 23 -15 33 -35 67 -48 80 -6 6
-11 19 -11 28 0 9 -7 22 -15 29 -8 7 -15 20 -15 30 0 10 -7 23 -15 30 -8 7
-15 23 -15 35 0 12 -7 28 -15 35 -8 7 -15 24 -15 39 0 14 -7 35 -15 45 -8 11
-15 34 -15 50 -1 17 -7 42 -15 56 -8 14 -14 44 -15 67 0 23 -7 68 -15 100 -20
78 -20 320 0 387 8 27 15 74 15 105 1 33 7 64 15 75 8 11 15 36 15 57 0 20 7
42 15 49 8 7 15 27 15 44 0 17 7 40 15 50 8 11 15 27 15 37 0 9 7 22 15 29 8
7 15 23 15 35 0 12 7 28 15 35 8 7 15 20 15 30 0 10 7 20 15 24 8 3 15 13 15
22 0 9 14 33 30 54 17 21 30 42 30 47 0 5 13 22 28 39 16 18 39 44 51 60 29
37 129 140 173 178 47 41 180 141 198 149 8 4 29 16 45 27 17 11 40 24 52 29
11 5 24 14 27 20 10 15 -66 110 -87 110 -10 1 -45 -19 -77 -44 -32 -25 -61
-45 -65 -45 -4 0 -32 -19 -63 -43 -31 -24 -64 -47 -72 -50 -22 -10 -50 -28
-91 -59 -20 -16 -40 -28 -44 -28 -4 0 -24 -13 -44 -28 -20 -16 -43 -32 -51
-35 -8 -4 -28 -16 -45 -27 -16 -11 -39 -24 -50 -30 -29 -15 -56 -32 -96 -62
-20 -16 -44 -28 -53 -28 -9 0 -19 -7 -22 -15 -4 -8 -14 -15 -24 -15 -11 0 -22
-5 -25 -11 -4 -5 -17 -15 -28 -20 -12 -5 -35 -18 -52 -29 -16 -11 -39 -24 -50
-30 -11 -6 -33 -19 -50 -30 -16 -11 -37 -22 -45 -26 -44 -17 -45 -18 -52 -150
-3 -71 -11 -147 -17 -169 -6 -22 -11 -78 -11 -125 0 -47 -7 -110 -15 -140 -8
-30 -15 -82 -15 -115 0 -33 -7 -71 -15 -85 -8 -14 -14 -46 -15 -71 0 -26 -7
-63 -15 -82 -8 -20 -15 -51 -15 -70 0 -18 -7 -42 -15 -53 -8 -10 -15 -33 -15
-50 0 -17 -7 -37 -15 -44 -8 -7 -15 -23 -15 -35 0 -13 -6 -36 -14 -52 -14 -29
-40 -87 -50 -113 -3 -8 -10 -22 -15 -30 -5 -8 -19 -36 -31 -62 -12 -27 -26
-50 -31 -54 -5 -3 -9 -14 -9 -25 0 -10 -5 -19 -10 -19 -6 0 -15 -10 -20 -22
-13 -31 -26 -50 -94 -143 -59 -81 -278 -305 -297 -305 -6 0 -28 -13 -49 -30
-21 -16 -45 -30 -53 -30 -8 0 -17 -7 -21 -15 -3 -8 -14 -15 -24 -15 -11 0 -25
-7 -32 -15 -7 -8 -20 -15 -29 -15 -10 0 -26 -7 -37 -15 -10 -8 -33 -15 -50
-15 -17 0 -37 -7 -44 -15 -7 -8 -29 -15 -49 -15 -20 0 -58 -7 -85 -15 -64 -19
-237 -19 -291 0 -22 8 -53 15 -70 15 -16 0 -39 7 -49 15 -11 8 -27 15 -36 15
-9 0 -37 11 -61 25 -24 14 -50 28 -58 32 -8 3 -22 14 -31 22 -104 96 -142 136
-153 161 -4 8 -16 29 -27 45 -11 17 -22 37 -25 45 -3 8 -13 28 -21 43 -7 16
-14 38 -14 50 -1 12 -7 33 -15 47 -21 37 -21 367 0 394 8 11 15 34 15 51 0 17
7 40 15 51 8 10 15 27 15 36 0 9 7 29 14 45 8 15 17 35 20 43 3 8 10 22 15 30
5 8 12 22 15 30 4 8 15 29 26 45 11 17 23 37 27 45 36 80 262 324 383 415 36
27 69 55 73 62 4 7 13 13 18 13 6 0 37 20 69 45 32 25 62 45 65 45 4 0 24 14
45 30 21 17 41 30 45 30 4 0 24 14 45 30 21 17 45 30 53 30 9 0 20 6 24 13 4
6 30 23 56 37 70 36 87 46 100 59 6 6 19 11 29 11 10 0 21 7 24 15 4 8 14 15
24 15 10 0 23 7 30 15 7 8 21 15 31 15 10 0 21 5 24 11 4 5 17 14 28 20 12 5
30 13 40 19 40 23 55 31 104 55 29 15 55 30 58 36 4 5 14 9 24 9 10 0 24 7 31
15 7 8 20 15 30 15 10 0 23 7 30 15 7 8 20 15 29 15 11 0 21 15 30 48 19 69
25 142 12 142 -6 0 -11 -5 -11 -10 0 -6 -11 -15 -25 -20 -14 -5 -25 -14 -25
-20 0 -5 -11 -10 -24 -10 -13 0 -29 -7 -36 -15 -7 -8 -22 -15 -34 -15 -12 0
-27 -5 -34 -12 -7 -7 -36 -15 -64 -19 -29 -4 -71 -12 -93 -18 -57 -15 -165
-13 -195 4 -14 8 -37 14 -51 15 -14 0 -34 7 -45 15 -10 8 -26 15 -34 15 -42 1
-249 210 -250 251 0 9 -7 22 -15 29 -8 7 -15 21 -15 31 0 10 -9 33 -20 51 -20
34 -76 58 -136 58 -17 0 -37 7 -44 15 -7 8 -20 15 -29 15 -41 0 -165 84 -239
162 -23 23 -42 47 -42 52 0 4 -13 25 -30 46 -17 21 -30 44 -30 52 0 8 -7 23
-15 34 -8 10 -15 30 -15 44 0 14 -8 36 -17 49 -24 36 -24 371 0 418 10 18 17
40 17 50 0 47 117 223 148 223 5 0 15 7 22 15 9 11 33 15 84 15 66 0 75 -2 99
-28 24 -25 27 -36 27 -98 -1 -41 -7 -79 -15 -94 -8 -14 -15 -43 -15 -65 0 -22
-7 -58 -15 -80 -19 -53 -19 -176 0 -222 8 -19 15 -44 15 -54 0 -28 39 -97 76
-133 28 -28 118 -65 129 -54 2 2 7 56 11 119 4 62 13 129 20 148 8 18 14 50
14 70 1 20 7 47 15 61 8 14 14 39 15 56 0 17 7 37 15 44 8 7 15 27 15 45 0 18
7 38 15 45 8 7 15 23 15 35 0 12 7 28 15 35 8 7 15 23 15 35 0 12 7 28 15 35
8 7 15 20 15 30 0 10 6 23 14 29 8 7 17 23 20 36 4 14 11 25 16 25 6 0 10 8
10 19 0 10 7 24 15 31 8 7 15 19 15 27 0 7 7 16 15 19 8 4 15 10 15 16 0 14
111 156 171 219 52 54 168 149 199 163 8 3 35 17 59 31 24 14 52 25 61 25 10
0 23 6 29 14 7 8 31 16 54 19 23 3 58 10 77 15 52 15 101 14 156 -3z"/>
<path d="M3659 6482 c-26 -20 -66 -59 -89 -87 -24 -27 -46 -52 -49 -55 -8 -6
-29 -40 -38 -60 -3 -8 -12 -19 -20 -23 -7 -4 -13 -17 -13 -28 0 -11 -7 -22
-15 -25 -8 -4 -15 -14 -15 -24 0 -11 -4 -21 -9 -24 -11 -7 -51 -88 -51 -103 0
-6 -7 -16 -15 -23 -8 -7 -15 -23 -15 -35 0 -12 -7 -28 -15 -35 -8 -7 -15 -22
-15 -34 0 -11 -7 -30 -15 -40 -8 -11 -15 -29 -15 -41 0 -12 -7 -30 -15 -41 -8
-10 -15 -32 -15 -49 0 -16 -7 -41 -15 -55 -8 -14 -14 -44 -15 -68 0 -24 -5
-63 -11 -88 -6 -25 -9 -47 -6 -50 10 -10 170 118 262 211 50 49 112 119 139
155 27 36 54 70 60 75 14 13 33 44 46 73 5 12 14 22 19 22 5 0 12 8 15 18 9
23 31 61 45 75 6 6 11 19 11 28 0 9 7 22 15 29 8 7 15 23 15 35 0 12 7 28 15
35 8 7 15 27 15 44 0 17 7 40 15 50 17 23 20 112 4 121 -5 4 -14 18 -19 31 -9
22 -15 24 -77 23 -63 0 -71 -3 -114 -37z"/>
<path d="M5839 6475 c-53 -42 -128 -130 -142 -167 -3 -10 -11 -18 -17 -18 -5
0 -10 -9 -10 -19 0 -11 -4 -22 -9 -25 -12 -8 -51 -84 -51 -100 0 -7 -7 -19
-15 -26 -8 -7 -15 -24 -15 -39 0 -14 -7 -35 -15 -45 -8 -11 -15 -34 -15 -50
-1 -17 -7 -42 -15 -56 -8 -14 -14 -45 -15 -69 0 -24 -7 -70 -16 -103 -8 -33
-14 -67 -12 -75 3 -16 308 288 308 307 0 5 4 10 8 10 14 0 147 185 171 237 5
11 15 24 20 28 6 3 11 17 11 29 0 13 7 29 15 36 11 9 15 32 15 81 0 90 -17
109 -92 109 -47 -1 -59 -6 -109 -45z"/>
<path d="M3650 4105 c-7 -8 -21 -15 -31 -15 -10 0 -21 -5 -24 -11 -4 -5 -17
-14 -28 -20 -22 -9 -36 -17 -72 -38 -11 -6 -28 -14 -37 -17 -9 -3 -19 -12 -22
-20 -3 -8 -14 -14 -24 -14 -11 0 -25 -7 -32 -15 -7 -8 -17 -15 -22 -15 -6 0
-27 -13 -48 -30 -21 -16 -41 -30 -45 -30 -3 0 -33 -20 -65 -45 -32 -25 -61
-45 -65 -45 -7 0 -30 -19 -53 -42 -9 -10 -22 -18 -29 -18 -6 0 -16 -6 -20 -12
-4 -7 -30 -31 -58 -53 -90 -72 -305 -294 -305 -315 0 -4 -7 -10 -15 -14 -8 -3
-15 -10 -15 -16 0 -5 -13 -29 -30 -52 -16 -22 -30 -47 -30 -53 0 -7 -7 -18
-15 -25 -8 -7 -15 -20 -15 -30 0 -10 -7 -23 -15 -30 -8 -7 -15 -25 -15 -39 0
-15 -7 -36 -15 -47 -11 -14 -14 -50 -15 -147 0 -109 3 -133 20 -165 32 -58 98
-122 129 -122 14 0 45 -7 68 -15 36 -13 48 -13 98 0 31 8 73 15 94 15 22 0 44
6 51 15 7 8 23 15 35 15 12 0 28 7 35 15 7 8 19 15 27 15 18 0 125 82 173 132
69 73 90 96 90 103 0 4 12 24 28 44 42 56 122 205 122 228 0 6 7 16 15 23 8 7
15 23 15 35 0 12 7 28 15 35 8 7 15 25 15 40 0 15 7 33 15 40 8 7 15 27 15 45
0 18 7 38 15 45 8 7 15 27 15 44 1 17 7 42 15 56 8 14 14 41 15 61 0 19 7 44
15 55 8 10 15 37 15 59 0 22 7 51 15 65 8 14 14 46 15 71 0 25 6 65 14 90 8
24 17 74 19 112 5 64 4 67 -18 67 -12 0 -28 -7 -35 -15z"/>
<path d="M5273 8313 c15 -2 37 -2 50 0 12 2 0 4 -28 4 -27 0 -38 -2 -22 -4z"/>
<path d="M5418 8283 c12 -2 30 -2 40 0 9 3 -1 5 -23 4 -22 0 -30 -2 -17 -4z"/>
<path d="M5543 8253 c9 -2 25 -2 35 0 9 3 1 5 -18 5 -19 0 -27 -2 -17 -5z"/>
<path d="M693 5450 c0 -25 2 -35 4 -22 2 12 2 32 0 45 -2 12 -4 2 -4 -23z"/>
<path d="M662 5344 c-1 -12 -5 -43 -8 -70 -4 -38 -3 -45 6 -31 6 9 9 41 7 70
-2 28 -4 43 -5 31z"/>
<path d="M8288 3574 c-5 -4 -8 -30 -7 -58 l1 -51 9 45 c10 49 8 76 -3 64z"/>
<path d="M8253 3395 c0 -22 2 -30 4 -17 2 12 2 30 0 40 -3 9 -5 -1 -4 -23z"/>
<path d="M3350 729 c0 -5 6 -9 14 -9 7 0 29 -3 47 -6 23 -5 31 -3 24 3 -14 14
-85 24 -85 12z"/>
</g>
</svg>
