<?xml version="1.0" standalone="no"?>
<!DOCTYPE svg PUBLIC "-//W3C//DTD SVG 20010904//EN"
 "http://www.w3.org/TR/2001/REC-SVG-20010904/DTD/svg10.dtd">
<svg version="1.0" xmlns="http://www.w3.org/2000/svg"
 width="300.000000pt" height="300.000000pt" viewBox="0 0 300.000000 300.000000"
 preserveAspectRatio="xMidYMid meet">
<metadata>
Created by potrace 1.10, written by Peter Selinger 2001-2011
</metadata>
<g transform="translate(0.000000,300.000000) scale(0.100000,-0.100000)"
fill="#7b7e84" stroke="none">
<path d="M1321 2990 c-320 -41 -622 -185 -855 -410 -232 -224 -369 -472 -437
-790 -33 -152 -33 -429 0 -580 66 -309 190 -539 411 -761 224 -225 460 -354
770 -420 150 -32 429 -32 577 -1 206 44 386 120 564 237 96 64 320 288 384
384 72 110 149 264 184 369 178 537 50 1114 -339 1516 -225 233 -477 372 -793
437 -117 24 -350 33 -466 19z m405 -195 c254 -45 490 -165 678 -345 191 -183
307 -385 374 -649 24 -95 26 -125 27 -291 0 -144 -4 -204 -19 -270 -56 -257
-177 -481 -356 -661 -138 -139 -295 -242 -472 -309 -68 -26 -84 -25 -113 5
l-25 24 0 229 c0 249 -7 298 -55 362 l-26 35 78 13 c272 46 435 180 493 407
54 212 27 406 -77 542 -23 30 -24 34 -12 93 13 69 7 160 -16 238 -14 46 -19
52 -43 52 -65 0 -224 -63 -300 -119 -23 -17 -28 -16 -111 3 -120 27 -358 28
-492 2 l-95 -19 -71 42 c-81 48 -166 80 -234 88 l-47 6 -17 -54 c-23 -79 -29
-169 -16 -239 12 -59 11 -63 -12 -93 -42 -55 -78 -137 -94 -211 -28 -131 0
-334 64 -459 73 -146 255 -255 471 -283 28 -4 52 -9 52 -11 0 -3 -11 -19 -25
-35 -14 -17 -33 -56 -42 -88 -15 -56 -17 -59 -62 -72 -25 -7 -75 -13 -111 -12
-101 1 -161 40 -238 155 -56 83 -175 140 -230 110 -29 -15 -19 -34 39 -76 57
-41 100 -97 138 -180 39 -84 72 -119 149 -157 64 -32 71 -33 184 -33 l118 1 0
-116 c0 -129 -9 -154 -59 -165 -21 -4 -53 4 -117 30 -406 168 -695 518 -791
957 -25 116 -25 400 0 515 39 180 97 320 197 472 189 289 515 503 859 565 106
20 347 20 457 1z"/>
</g>
</svg>
