<?xml version="1.0" standalone="no"?>
<!DOCTYPE svg PUBLIC "-//W3C//DTD SVG 20010904//EN"
 "http://www.w3.org/TR/2001/REC-SVG-20010904/DTD/svg10.dtd">
<svg version="1.0" xmlns="http://www.w3.org/2000/svg"
 width="300.000000pt" height="300.000000pt" viewBox="0 0 300.000000 300.000000"
 preserveAspectRatio="xMidYMid meet">
<metadata>
Created by potrace 1.10, written by Peter Selinger 2001-2011
</metadata>
<g transform="translate(0.000000,300.000000) scale(0.100000,-0.100000)"
fill="#7b7e84" stroke="none">
<path d="M302 2990 c-61 -13 -157 -67 -198 -113 -20 -22 -50 -69 -68 -106
l-31 -66 0 -1206 0 -1205 37 -76 c45 -89 94 -138 187 -182 l66 -31 1206 0
1205 0 76 37 c89 45 138 94 182 187 l31 66 0 1205 0 1205 -31 66 c-44 93 -93
142 -182 187 l-76 37 -1180 2 c-650 0 -1200 -3 -1224 -7z m438 -331 c55 -24
114 -82 138 -138 24 -56 21 -157 -7 -214 -45 -92 -144 -149 -259 -149 -151 0
-255 79 -282 213 -44 221 188 384 410 288z m1486 -680 c140 -26 275 -119 347
-240 94 -159 109 -284 105 -869 l-3 -425 -255 0 -255 0 -2 400 c-1 220 -4 434
-6 475 -7 144 -74 238 -185 261 -132 27 -257 -43 -314 -176 -9 -23 -13 -145
-16 -497 l-3 -468 -254 0 -253 0 4 758 5 757 249 3 250 2 0 -101 0 -101 66 71
c71 76 167 133 254 150 65 13 197 13 266 0z m-1366 -779 l0 -760 -255 0 -255
0 0 753 c0 415 3 757 7 760 3 4 118 7 255 7 l248 0 0 -760z"/>
</g>
</svg>
