<?xml version="1.0" standalone="no"?>
<!DOCTYPE svg PUBLIC "-//W3C//DTD SVG 20010904//EN"
 "http://www.w3.org/TR/2001/REC-SVG-20010904/DTD/svg10.dtd">
<svg version="1.0" xmlns="http://www.w3.org/2000/svg"
 width="300.000000pt" height="476.000000pt" viewBox="0 0 300.000000 476.000000"
 preserveAspectRatio="xMidYMid meet">
<metadata>
Created by potrace 1.10, written by Peter Selinger 2001-2011
</metadata>
<g transform="translate(0.000000,476.000000) scale(0.100000,-0.100000)"
fill="#7b7e84" stroke="none">
<path d="M2365 4745 c-263 -58 -561 -281 -688 -515 -116 -214 -76 -409 89
-436 51 -8 152 17 214 53 155 91 275 334 241 488 -15 67 -70 131 -120 141 -42
9 -48 22 -14 31 37 9 90 9 135 -1 31 -7 37 -5 43 13 18 58 125 173 211 228 17
10 15 12 -16 12 -19 0 -62 -7 -95 -14z"/>
<path d="M1539 4531 c-213 -83 -425 -309 -499 -531 -30 -90 -26 -220 8 -268
120 -167 389 -8 434 258 9 54 9 83 0 126 -19 90 -57 129 -147 149 l-30 7 30
16 c17 9 54 16 82 16 40 1 53 5 53 16 0 30 60 140 101 185 45 49 39 54 -32 26z"/>
<path d="M2706 4269 c-265 -65 -494 -267 -473 -419 12 -88 68 -126 177 -118
105 8 202 72 269 176 62 99 64 183 4 239 l-34 33 28 0 c16 0 46 -9 68 -20 l38
-20 44 41 c42 38 131 88 163 90 8 1 4 5 -10 9 -47 15 -193 9 -274 -11z"/>
<path d="M901 4119 c-51 -20 -154 -104 -206 -166 -169 -205 -213 -460 -92
-533 46 -28 95 -25 149 9 83 53 130 145 131 256 1 115 -49 188 -128 189 -36 1
-36 1 -14 19 12 9 39 20 60 23 29 5 39 11 39 25 0 30 37 118 65 155 14 19 25
34 23 33 -2 0 -14 -5 -27 -10z"/>
<path d="M1531 3564 c-560 -94 -1101 -593 -1305 -1205 -69 -205 -80 -279 -80
-519 0 -233 8 -282 70 -436 129 -323 406 -535 750 -574 412 -47 782 197 1024
678 29 57 51 105 48 107 -2 2 -30 -32 -63 -77 -103 -139 -234 -246 -389 -318
-104 -49 -180 -64 -274 -56 -239 22 -382 143 -444 374 -16 61 -20 108 -20 222
-1 198 33 378 118 635 125 379 279 627 469 754 105 70 187 96 305 96 111 0
162 -19 233 -88 80 -78 124 -176 162 -362 l22 -110 71 220 c39 121 91 284 115
363 l45 143 -79 40 c-103 52 -232 94 -343 114 -109 19 -319 18 -435 -1z"/>
<path d="M175 608 c-18 -54 -165 -568 -165 -577 0 -8 199 -11 743 -11 l743 0
84 288 c45 158 85 293 88 300 3 9 -149 12 -742 12 -588 0 -748 -3 -751 -12z"/>
</g>
</svg>
