<?xml version="1.0" standalone="no"?>
<!DOCTYPE svg PUBLIC "-//W3C//DTD SVG 20010904//EN"
 "http://www.w3.org/TR/2001/REC-SVG-20010904/DTD/svg10.dtd">
<svg version="1.0" xmlns="http://www.w3.org/2000/svg"
 width="225.000000pt" height="225.000000pt" viewBox="0 0 225.000000 225.000000"
 preserveAspectRatio="xMidYMid meet">
<metadata>
Created by potrace 1.10, written by Peter Selinger 2001-2011
</metadata>
<g transform="translate(0.000000,225.000000) scale(0.100000,-0.100000)"
fill="#7b7e84" stroke="none">
<path d="M38 1989 c9 -9 71 -66 138 -127 l121 -110 202 -311 c112 -171 201
-317 198 -324 -3 -7 -93 -149 -202 -315 l-197 -302 -131 -122 c-73 -68 -133
-125 -134 -128 -2 -3 492 -5 1096 -5 l1100 0 -87 80 c-184 168 -194 181 -396
493 -109 167 -196 307 -194 311 2 5 93 146 203 316 l200 307 138 126 c75 69
137 126 137 126 0 1 -497 1 -1105 1 -1012 0 -1103 -1 -1087 -16z m2080 -30
c-2 -3 -45 -44 -96 -90 -88 -80 -104 -101 -301 -404 -114 -176 -211 -325 -214
-332 -4 -6 89 -159 207 -340 206 -315 219 -331 310 -413 52 -47 95 -87 95 -90
1 -3 -447 -5 -994 -5 -547 0 -995 2 -994 5 0 3 45 44 98 92 95 84 103 95 309
412 117 179 212 328 212 331 0 3 -96 152 -212 331 -207 317 -216 329 -310 413
-53 47 -97 88 -97 91 -1 3 447 5 994 5 547 0 994 -3 993 -6z"/>
<path d="M1018 1866 c-59 -34 -110 -65 -114 -68 -3 -3 46 -83 109 -177 l114
-171 115 173 115 173 -76 44 c-42 24 -94 54 -116 66 l-40 23 -107 -63z m195
-33 c45 -25 83 -47 84 -48 2 -1 -36 -60 -84 -131 l-86 -130 -84 125 c-46 69
-82 129 -81 133 3 8 147 95 161 97 4 1 45 -20 90 -46z"/>
<path d="M252 1907 c76 -58 127 -126 329 -437 122 -186 221 -342 221 -345 0
-4 -98 -157 -218 -341 -172 -266 -230 -347 -281 -394 l-64 -60 393 0 393 0
-95 52 c-52 28 -96 52 -97 53 -2 1 64 101 146 223 l148 222 147 -221 c81 -122
146 -222 144 -223 -4 -4 -139 -77 -168 -93 -21 -11 39 -13 369 -13 l394 0 -60
55 c-49 44 -105 123 -282 394 -122 186 -221 342 -221 345 0 4 100 160 221 347
177 271 234 351 282 394 l60 55 -394 0 -394 0 95 -52 c52 -28 96 -52 98 -53 2
-2 -63 -102 -144 -224 l-147 -221 -144 215 c-79 118 -144 218 -144 222 -1 4
41 31 92 60 l94 53 -395 0 c-323 -1 -392 -3 -378 -13z m598 -33 c0 -3 -11 -19
-25 -36 -24 -28 -24 -31 -9 -60 28 -55 245 -376 271 -403 28 -28 36 -30 63
-15 17 9 282 397 295 433 4 8 -5 28 -19 45 -15 16 -26 33 -26 36 0 3 113 6
250 6 138 0 250 -4 250 -8 0 -5 -9 -17 -20 -27 -15 -13 -307 -452 -355 -533
-6 -9 -30 -46 -53 -82 -52 -79 -59 -103 -40 -144 23 -47 416 -647 444 -677 13
-14 24 -28 24 -32 0 -4 -112 -7 -250 -7 -137 0 -250 2 -250 5 0 3 9 15 20 27
23 25 25 49 9 81 -35 67 -263 398 -280 407 -11 6 -28 9 -37 5 -30 -9 -302
-413 -302 -448 0 -12 12 -34 27 -49 18 -19 22 -28 12 -29 -47 -1 -494 3 -496
5 -2 1 8 16 22 32 23 26 101 145 364 549 62 96 91 149 91 169 0 19 -19 60 -52
110 -49 76 -166 255 -320 491 -36 55 -73 107 -82 114 -9 7 -16 20 -16 27 0 12
44 14 245 14 135 0 245 -3 245 -6z"/>
<path d="M1015 633 c-60 -91 -111 -169 -113 -173 -2 -4 48 -38 111 -74 l114
-66 115 67 115 67 -114 171 c-63 93 -115 171 -116 172 -1 0 -51 -73 -112 -164z
m199 -40 l85 -127 -87 -49 -86 -50 -46 27 c-25 15 -64 36 -87 48 l-41 21 86
129 c47 70 87 128 88 128 2 0 42 -57 88 -127z"/>
</g>
</svg>
